<?xml version="1.0" encoding="UTF-8"?>
<svg width="1000px" height="1000px" viewBox="0 0 100 100" version="1.1" xmlns="http://www.w3.org/2000/svg" xmlns:xlink="http://www.w3.org/1999/xlink">
  <defs>
    <linearGradient id="gradient" x1="0" x2="0" y1="1" y2="0">
      <stop offset="0" stop-color="firebrick" /> <stop offset="0.5" stop-color="orange" /> <stop offset="1" stop-color="gold" />
    </linearGradient>
    <mask id="hole-mask">
      <polygon
      data-row="0"
      points="94.2,4.2 95.8,4.2 95,5.8"
      style="
        fill: white;
      "/>
<!-- end of row -->
<polygon
      data-row="0"
      points="25,13.850000000000001 26.15,16.15 23.85,16.15"
      style="
        fill: white;
      "/>
<polygon
      data-row="1"
      points="55,13.850000000000001 56.15,16.15 53.85,16.15"
      style="
        fill: white;
      "/>
<polygon
      data-row="2"
      points="65,13.850000000000001 66.15,16.15 63.85,16.15"
      style="
        fill: white;
      "/>
<polygon
      data-row="3"
      points="68.85,13.850000000000001 71.15,13.850000000000001 70,16.15"
      style="
        fill: white;
      "/>
<polygon
      data-row="4"
      points="75,13.850000000000001 76.15,16.15 73.85,16.15"
      style="
        fill: white;
      "/>
<!-- end of row -->
<polygon
      data-row="0"
      points="10,23.5 11.5,26.5 8.5,26.5"
      style="
        fill: white;
      "/>
<polygon
      data-row="1"
      points="13.5,23.5 16.5,23.5 15,26.5"
      style="
        fill: white;
      "/>
<polygon
      data-row="2"
      points="50,23.5 51.5,26.5 48.5,26.5"
      style="
        fill: white;
      "/>
<polygon
      data-row="3"
      points="80,23.5 81.5,26.5 78.5,26.5"
      style="
        fill: white;
      "/>
<!-- end of row -->
<polygon
      data-row="0"
      points="8.149999999999999,33.15 11.850000000000001,33.15 10,36.85"
      style="
        fill: white;
      "/>
<polygon
      data-row="1"
      points="15,33.15 16.85,36.85 13.149999999999999,36.85"
      style="
        fill: white;
      "/>
<polygon
      data-row="2"
      points="45,33.15 46.85,36.85 43.15,36.85"
      style="
        fill: white;
      "/>
<polygon
      data-row="3"
      points="55,33.15 56.85,36.85 53.15,36.85"
      style="
        fill: white;
      "/>
<polygon
      data-row="4"
      points="65,33.15 66.85,36.85 63.15,36.85"
      style="
        fill: white;
      "/>
<polygon
      data-row="5"
      points="68.15,33.15 71.85,33.15 70,36.85"
      style="
        fill: white;
      "/>
<polygon
      data-row="6"
      points="88.15,33.15 91.85,33.15 90,36.85"
      style="
        fill: white;
      "/>
<!-- end of row -->
<polygon
      data-row="0"
      points="2.8000000000000003,42.8 7.199999999999999,42.8 5,47.2"
      style="
        fill: white;
      "/>
<polygon
      data-row="1"
      points="12.8,42.8 17.2,42.8 15,47.2"
      style="
        fill: white;
      "/>
<polygon
      data-row="2"
      points="30,42.8 32.2,47.2 27.8,47.2"
      style="
        fill: white;
      "/>
<polygon
      data-row="3"
      points="32.8,42.8 37.2,42.8 35,47.2"
      style="
        fill: white;
      "/>
<polygon
      data-row="4"
      points="42.8,42.8 47.2,42.8 45,47.2"
      style="
        fill: white;
      "/>
<polygon
      data-row="5"
      points="52.8,42.8 57.2,42.8 55,47.2"
      style="
        fill: white;
      "/>
<polygon
      data-row="6"
      points="72.8,42.8 77.2,42.8 75,47.2"
      style="
        fill: white;
      "/>
<!-- end of row -->
<polygon
      data-row="0"
      points="5,52.45 7.550000000000001,57.55 2.4499999999999997,57.55"
      style="
        fill: white;
      "/>
<polygon
      data-row="1"
      points="7.449999999999999,52.45 12.55,52.45 10,57.55"
      style="
        fill: white;
      "/>
<polygon
      data-row="2"
      points="15,52.45 17.55,57.55 12.45,57.55"
      style="
        fill: white;
      "/>
<polygon
      data-row="3"
      points="17.45,52.45 22.55,52.45 20,57.55"
      style="
        fill: white;
      "/>
<polygon
      data-row="4"
      points="27.45,52.45 32.55,52.45 30,57.55"
      style="
        fill: white;
      "/>
<polygon
      data-row="5"
      points="35,52.45 37.55,57.55 32.45,57.55"
      style="
        fill: white;
      "/>
<polygon
      data-row="6"
      points="37.45,52.45 42.55,52.45 40,57.55"
      style="
        fill: white;
      "/>
<polygon
      data-row="7"
      points="45,52.45 47.55,57.55 42.45,57.55"
      style="
        fill: white;
      "/>
<polygon
      data-row="8"
      points="47.45,52.45 52.55,52.45 50,57.55"
      style="
        fill: white;
      "/>
<polygon
      data-row="9"
      points="57.45,52.45 62.55,52.45 60,57.55"
      style="
        fill: white;
      "/>
<polygon
      data-row="10"
      points="67.45,52.45 72.55,52.45 70,57.55"
      style="
        fill: white;
      "/>
<polygon
      data-row="11"
      points="75,52.45 77.55,57.55 72.45,57.55"
      style="
        fill: white;
      "/>
<polygon
      data-row="12"
      points="77.45,52.45 82.55,52.45 80,57.55"
      style="
        fill: white;
      "/>
<polygon
      data-row="13"
      points="87.45,52.45 92.55,52.45 90,57.55"
      style="
        fill: white;
      "/>
<!-- end of row -->
<polygon
      data-row="0"
      points="10,62.1 12.899999999999999,67.9 7.1000000000000005,67.9"
      style="
        fill: white;
      "/>
<polygon
      data-row="1"
      points="12.100000000000001,62.1 17.9,62.1 15,67.9"
      style="
        fill: white;
      "/>
<polygon
      data-row="2"
      points="20,62.1 22.9,67.9 17.1,67.9"
      style="
        fill: white;
      "/>
<polygon
      data-row="3"
      points="22.1,62.1 27.9,62.1 25,67.9"
      style="
        fill: white;
      "/>
<polygon
      data-row="4"
      points="32.1,62.1 37.9,62.1 35,67.9"
      style="
        fill: white;
      "/>
<polygon
      data-row="5"
      points="40,62.1 42.9,67.9 37.1,67.9"
      style="
        fill: white;
      "/>
<polygon
      data-row="6"
      points="42.1,62.1 47.9,62.1 45,67.9"
      style="
        fill: white;
      "/>
<polygon
      data-row="7"
      points="52.1,62.1 57.9,62.1 55,67.9"
      style="
        fill: white;
      "/>
<polygon
      data-row="8"
      points="60,62.1 62.9,67.9 57.1,67.9"
      style="
        fill: white;
      "/>
<polygon
      data-row="9"
      points="62.1,62.1 67.9,62.1 65,67.9"
      style="
        fill: white;
      "/>
<polygon
      data-row="10"
      points="70,62.1 72.9,67.9 67.1,67.9"
      style="
        fill: white;
      "/>
<polygon
      data-row="11"
      points="72.1,62.1 77.9,62.1 75,67.9"
      style="
        fill: white;
      "/>
<polygon
      data-row="12"
      points="80,62.1 82.9,67.9 77.1,67.9"
      style="
        fill: white;
      "/>
<polygon
      data-row="13"
      points="82.1,62.1 87.9,62.1 85,67.9"
      style="
        fill: white;
      "/>
<polygon
      data-row="14"
      points="92.1,62.1 97.9,62.1 95,67.9"
      style="
        fill: white;
      "/>
<!-- end of row -->
<polygon
      data-row="0"
      points="5,71.75 8.25,78.25 1.75,78.25"
      style="
        fill: white;
      "/>
<polygon
      data-row="1"
      points="6.75,71.75 13.25,71.75 10,78.25"
      style="
        fill: white;
      "/>
<polygon
      data-row="2"
      points="15,71.75 18.25,78.25 11.75,78.25"
      style="
        fill: white;
      "/>
<polygon
      data-row="3"
      points="16.75,71.75 23.25,71.75 20,78.25"
      style="
        fill: white;
      "/>
<polygon
      data-row="4"
      points="25,71.75 28.25,78.25 21.75,78.25"
      style="
        fill: white;
      "/>
<polygon
      data-row="5"
      points="35,71.75 38.25,78.25 31.75,78.25"
      style="
        fill: white;
      "/>
<polygon
      data-row="6"
      points="36.75,71.75 43.25,71.75 40,78.25"
      style="
        fill: white;
      "/>
<polygon
      data-row="7"
      points="45,71.75 48.25,78.25 41.75,78.25"
      style="
        fill: white;
      "/>
<polygon
      data-row="8"
      points="46.75,71.75 53.25,71.75 50,78.25"
      style="
        fill: white;
      "/>
<polygon
      data-row="9"
      points="55,71.75 58.25,78.25 51.75,78.25"
      style="
        fill: white;
      "/>
<polygon
      data-row="10"
      points="56.75,71.75 63.25,71.75 60,78.25"
      style="
        fill: white;
      "/>
<polygon
      data-row="11"
      points="66.75,71.75 73.25,71.75 70,78.25"
      style="
        fill: white;
      "/>
<polygon
      data-row="12"
      points="75,71.75 78.25,78.25 71.75,78.25"
      style="
        fill: white;
      "/>
<polygon
      data-row="13"
      points="76.75,71.75 83.25,71.75 80,78.25"
      style="
        fill: white;
      "/>
<polygon
      data-row="14"
      points="85,71.75 88.25,78.25 81.75,78.25"
      style="
        fill: white;
      "/>
<!-- end of row -->
<polygon
      data-row="0"
      points="1.4000000000000001,81.4 8.6,81.4 5,88.6"
      style="
        fill: white;
      "/>
<polygon
      data-row="1"
      points="10,81.4 13.6,88.6 6.4,88.6"
      style="
        fill: white;
      "/>
<polygon
      data-row="2"
      points="11.4,81.4 18.6,81.4 15,88.6"
      style="
        fill: white;
      "/>
<polygon
      data-row="3"
      points="20,81.4 23.6,88.6 16.4,88.6"
      style="
        fill: white;
      "/>
<polygon
      data-row="4"
      points="21.4,81.4 28.6,81.4 25,88.6"
      style="
        fill: white;
      "/>
<polygon
      data-row="5"
      points="30,81.4 33.6,88.6 26.4,88.6"
      style="
        fill: white;
      "/>
<polygon
      data-row="6"
      points="31.4,81.4 38.6,81.4 35,88.6"
      style="
        fill: white;
      "/>
<polygon
      data-row="7"
      points="40,81.4 43.6,88.6 36.4,88.6"
      style="
        fill: white;
      "/>
<polygon
      data-row="8"
      points="41.4,81.4 48.6,81.4 45,88.6"
      style="
        fill: white;
      "/>
<polygon
      data-row="9"
      points="50,81.4 53.6,88.6 46.4,88.6"
      style="
        fill: white;
      "/>
<polygon
      data-row="10"
      points="51.4,81.4 58.6,81.4 55,88.6"
      style="
        fill: white;
      "/>
<polygon
      data-row="11"
      points="60,81.4 63.6,88.6 56.4,88.6"
      style="
        fill: white;
      "/>
<polygon
      data-row="12"
      points="61.4,81.4 68.6,81.4 65,88.6"
      style="
        fill: white;
      "/>
<polygon
      data-row="13"
      points="70,81.4 73.6,88.6 66.4,88.6"
      style="
        fill: white;
      "/>
<polygon
      data-row="14"
      points="80,81.4 83.6,88.6 76.4,88.6"
      style="
        fill: white;
      "/>
<polygon
      data-row="15"
      points="81.4,81.4 88.6,81.4 85,88.6"
      style="
        fill: white;
      "/>
<polygon
      data-row="16"
      points="90,81.4 93.6,88.6 86.4,88.6"
      style="
        fill: white;
      "/>
<polygon
      data-row="17"
      points="91.4,81.4 98.6,81.4 95,88.6"
      style="
        fill: white;
      "/>
<!-- end of row -->
<polygon
      data-row="0"
      points="5,91.05 8.95,98.95 1.0500000000000003,98.95"
      style="
        fill: white;
      "/>
<polygon
      data-row="1"
      points="6.050000000000001,91.05 13.95,91.05 10,98.95"
      style="
        fill: white;
      "/>
<polygon
      data-row="2"
      points="15,91.05 18.95,98.95 11.05,98.95"
      style="
        fill: white;
      "/>
<polygon
      data-row="3"
      points="16.05,91.05 23.95,91.05 20,98.95"
      style="
        fill: white;
      "/>
<polygon
      data-row="4"
      points="25,91.05 28.95,98.95 21.05,98.95"
      style="
        fill: white;
      "/>
<polygon
      data-row="5"
      points="26.05,91.05 33.95,91.05 30,98.95"
      style="
        fill: white;
      "/>
<polygon
      data-row="6"
      points="35,91.05 38.95,98.95 31.05,98.95"
      style="
        fill: white;
      "/>
<polygon
      data-row="7"
      points="36.05,91.05 43.95,91.05 40,98.95"
      style="
        fill: white;
      "/>
<polygon
      data-row="8"
      points="45,91.05 48.95,98.95 41.05,98.95"
      style="
        fill: white;
      "/>
<polygon
      data-row="9"
      points="46.05,91.05 53.95,91.05 50,98.95"
      style="
        fill: white;
      "/>
<polygon
      data-row="10"
      points="55,91.05 58.95,98.95 51.05,98.95"
      style="
        fill: white;
      "/>
<polygon
      data-row="11"
      points="56.05,91.05 63.95,91.05 60,98.95"
      style="
        fill: white;
      "/>
<polygon
      data-row="12"
      points="65,91.05 68.95,98.95 61.05,98.95"
      style="
        fill: white;
      "/>
<polygon
      data-row="13"
      points="66.05,91.05 73.95,91.05 70,98.95"
      style="
        fill: white;
      "/>
<polygon
      data-row="14"
      points="75,91.05 78.95,98.95 71.05,98.95"
      style="
        fill: white;
      "/>
<polygon
      data-row="15"
      points="76.05,91.05 83.95,91.05 80,98.95"
      style="
        fill: white;
      "/>
<polygon
      data-row="16"
      points="85,91.05 88.95,98.95 81.05,98.95"
      style="
        fill: white;
      "/>
<polygon
      data-row="17"
      points="86.05,91.05 93.95,91.05 90,98.95"
      style="
        fill: white;
      "/>
    </mask>
  </defs>
  <rect width="100px" height="100px" mask="url(#hole-mask)" fill="url(#gradient)"></rect>
</svg>